<?xml version="1.0" encoding="UTF-8"?>
<svg version="1.1" xmlns="http://www.w3.org/2000/svg" width="168" height="173">
<path d="M0 0 C1.60933914 -0.00284752 1.60933914 -0.00284752 3.25119019 -0.00575256 C6.75786913 -0.00942425 10.26433594 0.0011865 13.77099609 0.01245117 C16.21910579 0.01364442 18.66721595 0.01409583 21.11532593 0.01383972 C26.22404887 0.01539798 31.33270108 0.02364198 36.44140625 0.03710938 C43.00448292 0.05418847 49.56748269 0.05792081 56.13057899 0.05716419 C61.17467997 0.05743525 66.21876399 0.06290467 71.26285934 0.07016563 C73.68469489 0.07335566 76.10653237 0.07532048 78.5283699 0.07605934 C81.89655128 0.07821428 85.26464895 0.08693739 88.6328125 0.09765625 C90.1443692 0.09697647 90.1443692 0.09697647 91.6864624 0.09628296 C92.59749725 0.10054794 93.5085321 0.10481293 94.44717407 0.10920715 C95.2431431 0.110883 96.03911213 0.11255884 96.85920143 0.11428547 C98.66943359 0.24291992 98.66943359 0.24291992 99.66943359 1.24291992 C99.75681005 3.09661603 99.77641512 4.95359533 99.76708984 6.80932617 C99.76386719 7.9340332 99.76064453 9.05874023 99.75732422 10.2175293 C99.74894531 11.4015332 99.74056641 12.58553711 99.73193359 13.80541992 C99.72742188 14.99329102 99.72291016 16.18116211 99.71826172 17.4050293 C99.70643034 20.35104218 99.68994646 23.29695673 99.66943359 26.24291992 C94.63089253 27.07503269 89.85686739 27.35077332 84.73193359 27.30541992 C84.04808594 27.3009082 83.36423828 27.29639648 82.65966797 27.29174805 C80.99621756 27.28011553 79.3328131 27.26218687 77.66943359 27.24291992 C77.7348233 28.0486142 77.80021301 28.85430847 77.86758423 29.68441772 C78.61532073 39.42340395 79.00809377 49.14416159 79.25537109 58.90698242 C79.27694653 59.73867573 79.29852196 60.57036903 79.32075119 61.42726517 C79.8173956 81.24707939 79.62239982 101.05044816 79.33282471 120.87188721 C79.28069227 124.60080655 79.23762653 128.32981058 79.19452858 132.05884361 C79.15165711 135.6981178 79.10428075 139.3373221 79.05543137 142.97652054 C79.03277933 144.68837654 79.01124578 146.40024777 78.99092484 148.11213303 C78.96191251 150.48182396 78.92706399 152.85136034 78.890625 155.22094727 C78.87963524 156.24467186 78.87963524 156.24467186 78.86842346 157.28907776 C78.78110547 162.37539993 78.23801472 167.12568982 77.66943359 172.24291992 C67.76943359 171.91291992 57.86943359 171.58291992 47.66943359 171.24291992 C47.33943359 123.72291992 47.00943359 76.20291992 46.66943359 27.24291992 C11.67383789 24.39035876 11.67383789 24.39035876 -19.52587891 35.97338867 C-21.33056641 37.24291992 -21.33056641 37.24291992 -24.33056641 38.24291992 C-25.38652044 40.08843832 -25.38652044 40.08843832 -26.33056641 42.24291992 C-27.79113883 44.29748558 -29.28230913 46.32439807 -30.79541016 48.34057617 C-36.01319965 58.20525198 -35.90691156 68.87590013 -36.09399414 79.76586914 C-36.14272383 82.47388242 -36.21846026 85.18016791 -36.29736328 87.88745117 C-36.73760472 105.80457067 -36.26284687 122.62168136 -23.23291016 136.44995117 C-19.80763672 139.67828897 -16.11973387 142.4596715 -12.33056641 145.24291992 C-11.23615234 146.13043945 -11.23615234 146.13043945 -10.11962891 147.03588867 C-2.79040541 152.78778737 5.27542372 156.83033101 13.609375 160.94287109 C18.77277339 163.53232184 22.92223655 165.80630351 26.66943359 170.24291992 C16.43826427 172.87111021 6.14060101 172.51939357 -4.33056641 172.24291992 C-5.57064453 172.21327148 -6.81072266 172.18362305 -8.08837891 172.15307617 C-24.74509231 171.33027467 -37.89735559 163.79862276 -50.01806641 152.80541992 C-62.98596542 138.43558588 -67.83224722 123.93584599 -67.69384766 104.67651367 C-67.69332704 103.3075409 -67.69385249 101.93856738 -67.69535828 100.56959534 C-67.69526932 97.72141131 -67.68499852 94.87351486 -67.66674805 92.02539062 C-67.64404197 88.40585811 -67.6435292 84.7867433 -67.65026569 81.16715908 C-67.65363377 78.346994 -67.64692303 75.52692122 -67.63713646 72.70677376 C-67.63150995 70.7334329 -67.63270837 68.76007628 -67.6341095 66.78672791 C-67.50294044 49.97442985 -63.70866938 36.64308899 -53.33056641 23.24291992 C-52.89357422 22.62932617 -52.45658203 22.01573242 -52.00634766 21.38354492 C-39.79882685 5.40012429 -19.14599886 -0.10895716 0 0 Z " fill="#080808" transform="translate(68.33056640625,-0.242919921875)"/>
<path d="M0 0 C1.01429331 3.04287993 1.12334785 5.0750587 1.12025452 8.25810242 C1.12162918 9.34765228 1.12300385 10.43720215 1.12442017 11.55976868 C1.11902725 13.35295784 1.11902725 13.35295784 1.11352539 15.18237305 C1.11367142 16.44102173 1.11381744 17.69967041 1.1139679 18.99645996 C1.1142551 22.44866579 1.1083707 25.90083696 1.10139394 29.35303473 C1.0951477 32.96051849 1.09455559 36.56800301 1.09336853 40.17549133 C1.09025897 47.00713919 1.08205062 53.83877107 1.07201904 60.67041188 C1.06084628 68.44784034 1.05534452 76.22526955 1.05032361 84.00270402 C1.03986771 100.00181194 1.0222755 116.00090391 1 132 C-2 133 -2 133 -4.12207031 132.24658203 C-4.93256836 131.83778809 -5.74306641 131.42899414 -6.578125 131.0078125 C-7.48498047 130.5540625 -8.39183594 130.1003125 -9.32617188 129.6328125 C-10.29103516 129.13523438 -11.25589844 128.63765625 -12.25 128.125 C-13.72823242 127.37476563 -13.72823242 127.37476563 -15.23632812 126.609375 C-22.30864986 122.97876293 -29.16612789 119.08608162 -35.90625 114.875 C-38.87383114 113.07646598 -41.88917604 111.53268153 -45 110 C-46.20473017 90.73246651 -46.12016373 71.48081623 -46.06866455 52.18579102 C-46.05826885 47.86735534 -46.05383282 43.54891345 -46.04882812 39.23046875 C-46.03823687 30.82029592 -46.02126528 22.4101526 -46 14 C-45.04287109 13.81824219 -45.04287109 13.81824219 -44.06640625 13.6328125 C-43.24011719 13.46523438 -42.41382813 13.29765625 -41.5625 13.125 C-40.32693359 12.88136719 -40.32693359 12.88136719 -39.06640625 12.6328125 C-38.38449219 12.42398438 -37.70257813 12.21515625 -37 12 C-36.67 11.34 -36.34 10.68 -36 10 C-34.05078125 9.39453125 -34.05078125 9.39453125 -31.3125 8.8125 C-23.86766435 7.0798837 -16.65384811 4.71146867 -9.3918457 2.3371582 C-8.465896 2.03640381 -7.53994629 1.73564941 -6.5859375 1.42578125 C-5.7511084 1.15161377 -4.9162793 0.87744629 -4.05615234 0.5949707 C-2 0 -2 0 0 0 Z M-20 64 C-20.3734761 67.42353094 -20.57873868 69.91060954 -18.9375 73 C-15.77203476 74.63378851 -13.34979714 73.85267564 -10 73 C-7.66703749 70.17282787 -7.66703749 70.17282787 -8.25 66.9375 C-8.7593244 63.900541 -8.7593244 63.900541 -11 62 C-15.05261287 61.65509678 -16.54754176 61.69836118 -20 64 Z " fill="#0C0C0C" transform="translate(100,30)"/>
<path d="M0 0 C0.66 0.33 1.32 0.66 2 1 C-1.96 4.96 -5.92 8.92 -10 13 C-10.66 12.67 -11.32 12.34 -12 12 C-8.27653164 7.57905197 -4.70478962 3.42166518 0 0 Z " fill="#666666" transform="translate(26,12)"/>
<path d="" fill="#FFFFFF" transform="translate(0,0)"/>
<path d="" fill="#FFFFFF" transform="translate(0,0)"/>
<path d="" fill="#FFFFFF" transform="translate(0,0)"/>
<path d="" fill="#FFFFFF" transform="translate(0,0)"/>
<path d="" fill="#FFFFFF" transform="translate(0,0)"/>
<path d="" fill="#FFFFFF" transform="translate(0,0)"/>
<path d="" fill="#FFFFFF" transform="translate(0,0)"/>
<path d="" fill="#FFFFFF" transform="translate(0,0)"/>
<path d="" fill="#FFFFFF" transform="translate(0,0)"/>
<path d="" fill="#FFFFFF" transform="translate(0,0)"/>
<path d="" fill="#FFFFFF" transform="translate(0,0)"/>
<path d="" fill="#FFFFFF" transform="translate(0,0)"/>
<path d="" fill="#FFFFFF" transform="translate(0,0)"/>
<path d="" fill="#FFFFFF" transform="translate(0,0)"/>
<path d="" fill="#FFFFFF" transform="translate(0,0)"/>
<path d="" fill="#FFFFFF" transform="translate(0,0)"/>
<path d="" fill="#FFFFFF" transform="translate(0,0)"/>
<path d="" fill="#FFFFFF" transform="translate(0,0)"/>
<path d="" fill="#FFFFFF" transform="translate(0,0)"/>
<path d="" fill="#00FFFF" transform="translate(0,0)"/>
<path d="" fill="#FFFFFF" transform="translate(0,0)"/>
<path d="" fill="#FFFFFF" transform="translate(0,0)"/>
<path d="" fill="#FFFFFF" transform="translate(0,0)"/>
<path d="" fill="#FFFFFF" transform="translate(0,0)"/>
</svg>
